<?xml version="1.0" standalone="no"?>
<!DOCTYPE svg PUBLIC "-//W3C//DTD SVG 20010904//EN"
 "http://www.w3.org/TR/2001/REC-SVG-20010904/DTD/svg10.dtd">
<svg version="1.0" xmlns="http://www.w3.org/2000/svg"
 width="500.000000pt" height="500.000000pt" viewBox="0 0 500.000000 500.000000"
 preserveAspectRatio="xMidYMid meet">
<metadata>
Created by potrace 1.11, written by Peter Selinger 2001-2013
</metadata>
<g transform="translate(0.000000,500.000000) scale(0.100000,-0.100000)"
fill="#000000" stroke="none">
<path d="M0 4245 l0 -755 715 0 715 0 0 -155 0 -155 -705 0 -705 0 0 -190 0
-190 245 0 245 0 0 -590 0 -590 240 0 240 0 0 590 0 590 220 0 220 0 0 190 0
190 25 0 25 0 0 -189 c0 -189 0 -190 -22 -193 l-23 -3 -3 -697 -2 -698 -715 0
-715 0 0 -700 0 -700 2500 0 2500 0 0 810 0 810 -218 0 -217 0 -113 227 -113
226 -80 -79 -79 -79 0 -147 0 -148 -225 0 -225 0 0 780 0 780 225 0 225 0 2
-395 3 -395 155 181 155 181 253 -1 252 -2 0 1126 0 1125 -2500 0 -2500 0 0
-755z m3460 -1845 l0 -780 -220 0 -220 0 0 780 0 780 220 0 220 0 0 -780z
m-1049 366 c133 -24 218 -73 270 -155 60 -93 62 -113 69 -506 5 -313 8 -366
24 -405 35 -89 54 -80 -176 -80 l-204 0 -16 33 c-8 17 -19 47 -22 64 l-7 32
-52 -41 c-96 -76 -230 -118 -376 -118 -143 0 -243 33 -320 105 -68 64 -95 128
-95 230 -1 157 70 252 227 304 34 12 145 39 247 61 102 22 220 52 264 66 l78
26 -5 46 c-9 82 -79 113 -207 93 -72 -12 -105 -31 -128 -73 -36 -64 -19 -61
-226 -39 -104 12 -196 21 -204 21 -11 0 -13 8 -8 38 17 95 100 203 193 250 39
20 131 47 188 55 76 10 415 5 486 -7z"/>
<path d="M2190 2121 c-183 -59 -187 -60 -220 -97 -60 -69 -26 -164 67 -185 84
-18 201 29 248 99 34 52 59 223 33 221 -7 -1 -65 -18 -128 -38z"/>
<path d="M4813 2538 l-183 -183 183 -314 182 -313 3 252 c1 138 1 361 0 496
l-3 244 -182 -182z"/>
</g>
</svg>
